<mxfile host="app.diagrams.net" modified="2024-02-16T15:37:16.719Z" agent="Mozilla/5.0 (Windows NT 10.0; Win64; x64) AppleWebKit/537.36 (KHTML, like Gecko) Chrome/120.0.0.0 Safari/537.36" version="23.1.5" etag="ITbQgH3LgtJuGHYwNEo3" type="github">
  <diagram name="Page-1" id="zkaIxzbM5S5EHikzU0et">
    <mxGraphModel>
      <root>
        <mxCell id="0" />
        <mxCell id="1" parent="0" />
      </root>
    </mxGraphModel>
  </diagram>
</mxfile>
